<svg width="220" height="29" viewBox="0 0 220 29" fill="none" xmlns="http://www.w3.org/2000/svg" role="img" aria-label="Brightstar">
<g clip-path="url(#clip0_186_1190)">
<path d="M0 27.8508V0.61379H10.2043C13.529 0.61379 16.0481 1.20201 17.7616 2.37844C19.5007 3.55487 20.3702 5.42182 20.3702 7.97928C20.3702 9.13014 20.1272 10.1403 19.6413 11.0099C19.181 11.8538 18.4905 12.5188 17.5698 13.0047C16.6747 13.4906 15.5877 13.7591 14.309 13.8103L14.2706 13.7336C16.5979 13.8103 18.3882 14.4497 19.6413 15.6517C20.8945 16.8281 21.521 18.4009 21.521 20.3702C21.521 22.8765 20.6515 24.7562 18.9124 26.0094C17.1989 27.237 14.7566 27.8508 11.5853 27.8508H0ZM4.98705 23.631H11.3551C12.9152 23.631 14.1428 23.3113 15.0379 22.6719C15.9586 22.0325 16.4189 21.0863 16.4189 19.8331C16.4189 18.58 15.9714 17.6209 15.0762 16.956C14.1811 16.291 12.9408 15.9586 11.3551 15.9586H4.98705V23.631ZM4.98705 12.0456H10.0508C11.6876 12.0456 12.9663 11.7388 13.887 11.125C14.8077 10.5112 15.2681 9.61606 15.2681 8.43962C15.2681 7.21204 14.8205 6.30414 13.9254 5.71593C13.0303 5.12771 11.7388 4.8336 10.0508 4.8336H4.98705V12.0456Z" fill="#1C457C"/>
<path d="M24.8394 27.8508V0.61379H36.2328C38.2021 0.61379 39.9028 0.94626 41.335 1.6112C42.7672 2.27614 43.8797 3.2224 44.6725 4.44998C45.4653 5.67757 45.8617 7.12253 45.8617 8.78488C45.8617 10.038 45.5932 11.1505 45.0561 12.1224C44.519 13.0942 43.7901 13.8742 42.8695 14.4624C41.9743 15.0507 40.9769 15.4087 39.8772 15.5366L39.6854 15.153C41.4501 15.153 42.8055 15.5494 43.7518 16.3422C44.7236 17.135 45.2735 18.3498 45.4013 19.9866L46.0919 27.8508H41.0281L40.4527 20.7154C40.3759 19.6413 40.0307 18.8485 39.4169 18.337C38.8031 17.8255 37.7801 17.5698 36.3479 17.5698H29.8264V27.8508H24.8394ZM29.8264 13.1965H35.9259C37.4349 13.1965 38.6113 12.8385 39.4552 12.1224C40.2992 11.4063 40.7212 10.3961 40.7212 9.09178C40.7212 7.7619 40.2864 6.73891 39.4169 6.02282C38.5729 5.30673 37.3326 4.94869 35.6958 4.94869H29.8264V13.1965Z" fill="#1C457C"/>
<path d="M49.7536 27.8508V11.0396H54.7407V27.8508H49.7536Z" fill="#1C457C"/>
<path d="M69.7561 28.4646C67.173 28.4646 64.9481 27.8636 63.0811 26.6615C61.2142 25.434 59.782 23.7588 58.7846 21.6361C57.8127 19.5134 57.3268 17.0583 57.3268 14.2706C57.3268 11.5342 57.8255 9.09178 58.8229 6.94351C59.8459 4.79524 61.3037 3.10732 63.1962 1.87973C65.0887 0.626578 67.3649 0 70.0246 0C72.3263 0 74.2572 0.396406 75.8173 1.18922C77.4029 1.98203 78.6688 3.08174 79.6151 4.48835C80.5614 5.89495 81.2263 7.51894 81.6099 9.36031L76.3927 9.62884C76.1114 8.01764 75.472 6.73891 74.4746 5.79265C73.5028 4.82082 72.0322 4.3349 70.063 4.3349C68.3239 4.3349 66.8917 4.78245 65.7664 5.67757C64.6667 6.57268 63.8356 7.77468 63.2729 9.28359C62.7358 10.7669 62.4673 12.4293 62.4673 14.2706C62.4673 16.1632 62.7358 17.8511 63.2729 19.3344C63.81 20.8177 64.6412 21.9942 65.7664 22.8637C66.9173 23.7077 68.3623 24.1297 70.1013 24.1297C71.4568 24.1297 72.6204 23.8483 73.5923 23.2857C74.5641 22.7231 75.3313 21.9558 75.894 20.984C76.4566 19.9866 76.7635 18.8869 76.8147 17.6849H70.1013V13.8103H81.6866V27.8508H78.4642L78.1573 21.8663L78.7711 22.2499C78.4898 23.4775 77.9144 24.5644 77.0448 25.5107C76.2009 26.4314 75.1395 27.1602 73.8608 27.6973C72.6077 28.2088 71.2394 28.4646 69.7561 28.4646Z" fill="#1C457C"/>
<path d="M85.0466 27.8508V0.61379H90.0337V13.6185L87.7319 11.9689H103.767L101.504 13.6185V0.61379H106.491V27.8508H101.504V14.6926L103.767 16.3038H87.7319L90.0337 14.6926V27.8508H85.0466Z" fill="#1C457C"/>
<path d="M115.488 27.8508V4.94869H107.202V0.61379H128.723V4.94869H120.475V27.8508H115.488Z" fill="#1C457C"/>
<path d="M142.11 28.4646C140.115 28.4646 138.351 28.0681 136.816 27.2753C135.307 26.4569 134.105 25.37 133.21 24.0146C132.315 22.6335 131.842 21.0735 131.791 19.3344L133.786 19.181C133.862 20.5876 134.246 21.8535 134.937 22.9788C135.627 24.0785 136.586 24.9608 137.814 25.6258C139.067 26.2651 140.525 26.5848 142.187 26.5848C143.594 26.5848 144.834 26.3674 145.908 25.9327C147.008 25.4723 147.865 24.833 148.478 24.0146C149.118 23.1706 149.437 22.1476 149.437 20.9456C149.437 20.0249 149.207 19.1938 148.747 18.4521C148.312 17.7104 147.481 17.0327 146.253 16.4189C145.051 15.8051 143.274 15.2169 140.921 14.6543C138.901 14.1683 137.264 13.6313 136.011 13.0431C134.758 12.4548 133.837 11.7132 133.249 10.8181C132.66 9.92295 132.366 8.78488 132.366 7.40385C132.366 5.99725 132.712 4.74409 133.402 3.64438C134.118 2.5191 135.141 1.63678 136.471 0.997409C137.801 0.33247 139.412 0 141.305 0C143.299 0 144.987 0.396406 146.368 1.18922C147.749 1.98203 148.811 3.03059 149.552 4.3349C150.294 5.61363 150.703 6.99466 150.78 8.47799L148.747 8.63143C148.696 7.37828 148.376 6.25299 147.788 5.25558C147.2 4.2326 146.356 3.41421 145.256 2.80042C144.156 2.18663 142.814 1.87973 141.228 1.87973C139.08 1.87973 137.405 2.40401 136.203 3.45257C135.001 4.47556 134.4 5.79265 134.4 7.40385C134.4 8.40126 134.617 9.23244 135.052 9.89738C135.486 10.5367 136.241 11.0994 137.315 11.5853C138.389 12.0456 139.911 12.506 141.88 12.9663C144.361 13.5546 146.292 14.2323 147.673 14.9995C149.079 15.7412 150.051 16.5979 150.588 17.5698C151.151 18.5416 151.432 19.6541 151.432 20.9073C151.432 22.4673 151.023 23.81 150.205 24.9353C149.386 26.0605 148.274 26.9301 146.867 27.5439C145.461 28.1577 143.875 28.4646 142.11 28.4646Z" fill="#96B037"/>
<path d="M163.204 27.8508V2.45516H154.189V0.61379H174.137V2.45516H165.122V27.8508H163.204Z" fill="#96B037"/>
<path d="M173.115 27.8508L183.09 0.61379H185.545L195.557 27.8508H193.524L190.417 19.2577H178.256L175.149 27.8508H173.115ZM178.908 17.4163H189.765L184.317 2.37844L178.908 17.4163Z" fill="#96B037"/>
<path d="M201.126 27.8508V0.61379H210.716C212.66 0.61379 214.31 0.933472 215.665 1.57284C217.046 2.18663 218.095 3.09453 218.811 4.29654C219.527 5.47297 219.885 6.89236 219.885 8.55471C219.885 9.83344 219.591 10.9715 219.003 11.9689C218.44 12.9663 217.673 13.7591 216.701 14.3474C215.729 14.9356 214.629 15.2936 213.402 15.4215L213.172 15.0379C215.09 15.0379 216.56 15.4726 217.583 16.3422C218.606 17.1861 219.182 18.4649 219.309 20.1784L220 27.8508H218.044L217.43 20.3318C217.327 18.9252 216.816 17.8894 215.895 17.2245C215 16.5596 213.606 16.2271 211.714 16.2271H203.044V27.8508H201.126ZM203.044 14.3857H211.138C213.21 14.3857 214.847 13.887 216.049 12.8896C217.276 11.8666 217.89 10.4089 217.89 8.51635C217.89 6.52153 217.289 5.01263 216.087 3.98964C214.885 2.96665 213.082 2.45516 210.678 2.45516H203.044V14.3857Z" fill="#96B037"/>
<path d="M52.2173 0.231445L53.5599 3.12239L56.7242 3.50589L54.3897 5.6761L55.0028 8.80406L52.2173 7.25439L49.4319 8.80406L50.045 5.6761L47.7105 3.50589L50.8748 3.12239L52.2173 0.231445Z" fill="#96B037"/>
</g>
<defs>
<clipPath id="clip0_186_1190">
<rect width="220" height="28.4646" fill="white"/>
</clipPath>
</defs>
</svg>
